<svg xmlns="http://www.w3.org/2000/svg" viewBox="0 0 240 240" width="240" height="240" role="img" aria-label="Hespera">
  <defs>
    <linearGradient id="hf-sky" x1="0" y1="0" x2="0" y2="1">
      <stop offset="0" stop-color="#312e81"/><stop offset=".46" stop-color="#c026d3"/>
      <stop offset=".62" stop-color="#fbbf24"/><stop offset="1" stop-color="#f59e0b"/>
    </linearGradient>
    <linearGradient id="hf-sea" x1="0" y1="0" x2="0" y2="1">
      <stop offset="0" stop-color="#c2620a"/><stop offset="1" stop-color="#312e81"/>
    </linearGradient>
    <radialGradient id="hf-sun" gradientUnits="userSpaceOnUse" cx="120" cy="132" r="74">
      <stop offset="0" stop-color="#fff7d6"/><stop offset=".55" stop-color="#fcd34d"/>
      <stop offset="1" stop-color="#f7a80d"/>
    </radialGradient>
    <radialGradient id="hf-glow" gradientUnits="userSpaceOnUse" cx="120" cy="128" r="86">
      <stop offset="0" stop-color="#fff3c4" stop-opacity=".85"/>
      <stop offset=".55" stop-color="#fcd34d" stop-opacity=".35"/>
      <stop offset="1" stop-color="#fcd34d" stop-opacity="0"/>
    </radialGradient>
    <clipPath id="hf-frame"><rect width="240" height="240" rx="48"/></clipPath>
  </defs>
  <g clip-path="url(#hf-frame)">
    <rect width="240" height="240" fill="url(#hf-sky)"/>
    <circle cx="120" cy="126" r="80" fill="url(#hf-glow)"/>
    <g fill="url(#hf-sun)">
      <rect x="60"  y="112" width="18" height="46" rx="7"/>
      <rect x="84"  y="90"  width="18" height="68" rx="7"/>
      <rect x="108" y="80"  width="18" height="78" rx="7"/>
      <rect x="132" y="92"  width="18" height="66" rx="7"/>
      <rect x="156" y="114" width="18" height="44" rx="7"/>
    </g>
    <polygon points="8,152 24,150 44,132 62,148 78,138 120,152 168,138 182,148 200,130 220,150 232,152 232,158 8,158" fill="#5a2a96" opacity=".9"/>
    <polygon points="8,158 30,158 52,140 72,153 120,158 172,151 192,140 214,158 232,158 232,166 8,166" fill="#180f36"/>
    <rect x="0" y="156" width="240" height="84" fill="url(#hf-sea)"/>
    <rect x="0" y="154" width="240" height="3" fill="#fff7d6" opacity=".55"/>
    <g fill="url(#hf-sun)" opacity=".32">
      <rect x="84"  y="157" width="18" height="26" rx="7"/>
      <rect x="108" y="157" width="18" height="30" rx="7"/>
      <rect x="132" y="157" width="18" height="25" rx="7"/>
    </g>
  </g>
</svg>