<svg xmlns="http://www.w3.org/2000/svg" viewBox="0 0 240 240" width="240" height="240" role="img" aria-label="Hespera">
  <defs>
    <linearGradient id="hespera-sky" x1="0" y1="0" x2="0" y2="1">
      <stop offset="0" stop-color="#312e81"/>
      <stop offset=".30" stop-color="#6d28d9"/>
      <stop offset=".48" stop-color="#c026d3"/>
      <stop offset=".58" stop-color="#f472b6"/>
      <stop offset=".64" stop-color="#fbbf24"/>
      <stop offset="1" stop-color="#f59e0b"/>
    </linearGradient>
    <linearGradient id="hespera-sea" x1="0" y1="0" x2="0" y2="1">
      <stop offset="0" stop-color="#d97706"/>
      <stop offset=".22" stop-color="#9d174d"/>
      <stop offset="1" stop-color="#312e81"/>
    </linearGradient>
    <radialGradient id="hespera-sun" gradientUnits="userSpaceOnUse" cx="120" cy="140" r="68">
      <stop offset="0" stop-color="#fff7d6"/>
      <stop offset=".55" stop-color="#fcd34d"/>
      <stop offset="1" stop-color="#f59e0b"/>
    </radialGradient>
    <linearGradient id="hespera-mtn" x1="0" y1="0" x2="0" y2="1">
      <stop offset="0" stop-color="#5a2aa8"/>
      <stop offset="1" stop-color="#211a48"/>
    </linearGradient>
    <clipPath id="hespera-frame"><rect width="240" height="240" rx="54"/></clipPath>
  </defs>
  <g clip-path="url(#hespera-frame)">
    <rect width="240" height="240" fill="url(#hespera-sky)"/>
    <path d="M180,60 C182.5,67.5 182.5,67.5 190,70 C182.5,72.5 182.5,72.5 180,80 C177.5,72.5 177.5,72.5 170,70 C177.5,67.5 177.5,67.5 180,60 Z" fill="#fff7d6"/>
    <!-- distant ridge: faint far edges -->
    <g fill="url(#hespera-mtn)" opacity=".6">
      <rect x="9"   y="145" width="3" height="5" rx="1"/>
      <rect x="13.5" y="141" width="3" height="9" rx="1"/>
      <rect x="223.5" y="145" width="3" height="5" rx="1"/>
      <rect x="228" y="147" width="3" height="3" rx="1"/>
    </g>
    <!-- mountain range: left -->
    <g fill="url(#hespera-mtn)" opacity=".9">
      <rect x="18"   y="136" width="3" height="14" rx="1"/>
      <rect x="22.5" y="131" width="3" height="19" rx="1"/>
      <rect x="27"   y="137" width="3" height="13" rx="1"/>
      <rect x="31.5" y="142" width="3" height="8"  rx="1"/>
      <rect x="36"   y="138" width="3" height="12" rx="1"/>
      <rect x="40.5" y="132" width="3" height="18" rx="1"/>
      <rect x="45"   y="127" width="3" height="23" rx="1"/>
      <rect x="49.5" y="134" width="3" height="16" rx="1"/>
      <rect x="54"   y="141" width="3" height="9"  rx="1"/>
      <rect x="58.5" y="144" width="3" height="6"  rx="1"/>
      <rect x="63"   y="146" width="3" height="4"  rx="1"/>
    </g>
    <!-- mountain range: right -->
    <g fill="url(#hespera-mtn)" opacity=".9">
      <rect x="174"   y="146" width="3" height="4"  rx="1"/>
      <rect x="178.5" y="142" width="3" height="8"  rx="1"/>
      <rect x="183"   y="136" width="3" height="14" rx="1"/>
      <rect x="187.5" y="130" width="3" height="20" rx="1"/>
      <rect x="192"   y="138" width="3" height="12" rx="1"/>
      <rect x="196.5" y="143" width="3" height="7"  rx="1"/>
      <rect x="201"   y="139" width="3" height="11" rx="1"/>
      <rect x="205.5" y="134" width="3" height="16" rx="1"/>
      <rect x="210"   y="140" width="3" height="10" rx="1"/>
      <rect x="214.5" y="137" width="3" height="13" rx="1"/>
      <rect x="219"   y="143" width="3" height="7"  rx="1"/>
    </g>
    <!-- the audio sun -->
    <g fill="url(#hespera-sun)">
      <rect x="68" y="124" width="8" height="26" rx="4"/>
      <rect x="80" y="109" width="8" height="41" rx="4"/>
      <rect x="92" y="96" width="8" height="54" rx="4"/>
      <rect x="104" y="99" width="8" height="51" rx="4"/>
      <rect x="116" y="92" width="8" height="58" rx="4"/>
      <rect x="128" y="97" width="8" height="53" rx="4"/>
      <rect x="140" y="101" width="8" height="49" rx="4"/>
      <rect x="152" y="110" width="8" height="40" rx="4"/>
      <rect x="164" y="123" width="8" height="27" rx="4"/>
    </g>
    <rect x="0" y="150" width="240" height="90" fill="url(#hespera-sea)"/>
    <rect x="0" y="148" width="240" height="2.5" fill="#fff7d6" opacity=".55"/>
    <!-- mountain reflections -->
    <g fill="url(#hespera-mtn)" opacity=".22">
      <rect x="9"    y="151" width="3" height="2"  rx="1"/>
      <rect x="13.5" y="151" width="3" height="4"  rx="1"/>
      <rect x="18"   y="151" width="3" height="6"  rx="1"/>
      <rect x="22.5" y="151" width="3" height="9"  rx="1"/>
      <rect x="27"   y="151" width="3" height="6"  rx="1"/>
      <rect x="31.5" y="151" width="3" height="4"  rx="1"/>
      <rect x="36"   y="151" width="3" height="5"  rx="1"/>
      <rect x="40.5" y="151" width="3" height="8"  rx="1"/>
      <rect x="45"   y="151" width="3" height="10" rx="1"/>
      <rect x="49.5" y="151" width="3" height="7"  rx="1"/>
      <rect x="54"   y="151" width="3" height="4"  rx="1"/>
      <rect x="58.5" y="151" width="3" height="3"  rx="1"/>
      <rect x="63"   y="151" width="3" height="2"  rx="1"/>
      <rect x="174"   y="151" width="3" height="2"  rx="1"/>
      <rect x="178.5" y="151" width="3" height="4"  rx="1"/>
      <rect x="183"   y="151" width="3" height="6"  rx="1"/>
      <rect x="187.5" y="151" width="3" height="9"  rx="1"/>
      <rect x="192"   y="151" width="3" height="5"  rx="1"/>
      <rect x="196.5" y="151" width="3" height="3"  rx="1"/>
      <rect x="201"   y="151" width="3" height="5"  rx="1"/>
      <rect x="205.5" y="151" width="3" height="7"  rx="1"/>
      <rect x="210"   y="151" width="3" height="4"  rx="1"/>
      <rect x="214.5" y="151" width="3" height="6"  rx="1"/>
      <rect x="219"   y="151" width="3" height="3"  rx="1"/>
      <rect x="223.5" y="151" width="3" height="2"  rx="1"/>
      <rect x="228"   y="151" width="3" height="1"  rx="1"/>
    </g>
    <!-- sun reflection -->
    <g fill="url(#hespera-sun)" opacity=".32">
      <rect x="68" y="150" width="8" height="13" rx="4"/>
      <rect x="80" y="150" width="8" height="21" rx="4"/>
      <rect x="92" y="150" width="8" height="27" rx="4"/>
      <rect x="104" y="150" width="8" height="26" rx="4"/>
      <rect x="116" y="150" width="8" height="29" rx="4"/>
      <rect x="128" y="150" width="8" height="27" rx="4"/>
      <rect x="140" y="150" width="8" height="25" rx="4"/>
      <rect x="152" y="150" width="8" height="20" rx="4"/>
      <rect x="164" y="150" width="8" height="14" rx="4"/>
    </g>
  </g>
</svg>
