<svg xmlns="http://www.w3.org/2000/svg" viewBox="0 0 240 240" width="240" height="240" role="img" aria-label="Hespera" style="color:#1e1b4b">
  <g fill="currentColor">
    <rect x="68" y="124" width="8" height="26" rx="4"/>
    <rect x="80" y="109" width="8" height="41" rx="4"/>
    <rect x="92" y="96" width="8" height="54" rx="4"/>
    <rect x="104" y="99" width="8" height="51" rx="4"/>
    <rect x="116" y="92" width="8" height="58" rx="4"/>
    <rect x="128" y="97" width="8" height="53" rx="4"/>
    <rect x="140" y="101" width="8" height="49" rx="4"/>
    <rect x="152" y="110" width="8" height="40" rx="4"/>
    <rect x="164" y="123" width="8" height="27" rx="4"/>
  </g>
  <rect x="56" y="148" width="128" height="3" rx="1.5" fill="currentColor"/>
  <g fill="currentColor" opacity=".4">
    <rect x="68" y="155" width="8" height="13" rx="4"/>
    <rect x="80" y="155" width="8" height="21" rx="4"/>
    <rect x="92" y="155" width="8" height="27" rx="4"/>
    <rect x="104" y="155" width="8" height="26" rx="4"/>
    <rect x="116" y="155" width="8" height="29" rx="4"/>
    <rect x="128" y="155" width="8" height="27" rx="4"/>
    <rect x="140" y="155" width="8" height="25" rx="4"/>
    <rect x="152" y="155" width="8" height="20" rx="4"/>
    <rect x="164" y="155" width="8" height="14" rx="4"/>
  </g>
</svg>
