<svg xmlns="http://www.w3.org/2000/svg" viewBox="0 0 240 240" width="240" height="240" role="img" aria-label="Hespera" style="color:#1e1b4b">
  <path d="M180,60 C182.5,67.5 182.5,67.5 190,70 C182.5,72.5 182.5,72.5 180,80 C177.5,72.5 177.5,72.5 170,70 C177.5,67.5 177.5,67.5 180,60 Z" fill="currentColor"/>
    <g fill="currentColor" opacity=".45">
      <rect x="68" y="124" width="8" height="26" rx="4"/>
      <rect x="80" y="109" width="8" height="41" rx="4"/>
      <rect x="92" y="96" width="8" height="54" rx="4"/>
      <rect x="104" y="99" width="8" height="51" rx="4"/>
      <rect x="116" y="92" width="8" height="58" rx="4"/>
      <rect x="128" y="97" width="8" height="53" rx="4"/>
      <rect x="140" y="101" width="8" height="49" rx="4"/>
      <rect x="152" y="110" width="8" height="40" rx="4"/>
      <rect x="164" y="123" width="8" height="27" rx="4"/>
    </g>
  <polygon points="8,150.0 8.0,128.9 23.3,140.6 37.3,118.7 54.9,142.5 68.4,136.7 85.1,146.0 100.7,143.7 114.1,146.3 130.7,142.5 143.9,147.5 160.0,143.3 173.4,145.7 187.1,124.5 203.0,143.7 221.8,123.9 232.0,140.5 232,150.0" fill="currentColor" opacity=".55"/>
  <polygon points="8,150.0 8.0,127.1 18.4,143.6 30.7,135.2 41.9,143.2 54.5,132.4 67.3,147.4 76.7,144.2 85.8,147.5 99.8,143.3 110.3,147.5 120.7,141.7 135.7,147.5 147.5,141.5 161.6,147.5 173.4,135.8 186.3,145.6 196.2,124.8 209.0,142.6 223.2,134.8 232.0,146.3 232,150.0" fill="currentColor"/>
  <rect x="8" y="148" width="224" height="3" rx="1.5" fill="currentColor"/>
    <g fill="currentColor" opacity=".30">
      <rect x="68" y="150" width="8" height="13" rx="4"/>
      <rect x="80" y="150" width="8" height="20" rx="4"/>
      <rect x="92" y="150" width="8" height="27" rx="4"/>
      <rect x="104" y="150" width="8" height="26" rx="4"/>
      <rect x="116" y="150" width="8" height="29" rx="4"/>
      <rect x="128" y="150" width="8" height="26" rx="4"/>
      <rect x="140" y="150" width="8" height="24" rx="4"/>
      <rect x="152" y="150" width="8" height="20" rx="4"/>
      <rect x="164" y="150" width="8" height="14" rx="4"/>
    </g>
  <polygon points="8,150.0 8.0,160.3 18.4,152.9 30.7,156.7 41.9,153.1 54.5,157.9 67.3,151.2 76.7,152.6 85.8,151.1 99.8,153.0 110.3,151.1 120.7,153.7 135.7,151.1 147.5,153.8 161.6,151.1 173.4,156.4 186.3,152.0 196.2,161.3 209.0,153.3 223.2,156.8 232.0,151.7 232,150.0" fill="currentColor" opacity=".22"/>
</svg>